# xmcd
#
# Track frame offsets:
#	150
#	10332
#	21080
#	34732
#	46060
#	55875
#	65697
#	76725
#	87015
#	96770
#	107940
#	119627
#	132042
#	143200
#	156160
#	167792
#	178485
#	187460
#	200077
#	210220
#	221080
#	232115
#	242742
#	254330
#	264817
#	277072
#	290992
#	299075
#	308840
#	318722
#	329702
#
# Disc length: 4522 seconds
#
# Revision: 2
# Processed by: cddbd v1.5.2PL0 Copyright (c) Steve Scherf et al.
# Submitted via: EasyCDDAExtractor 8.2.3.1
#
DISCID=ee11a81f
DTITLE=Various Artist - Classic Recordings [Disc1]
DYEAR=1958
DGENRE=Country
TTITLE0=Marvin Rainwater - I Gotta Go Get My Baby
TTITLE1=Marvin Rainwater - Daddy's Glad You Came Home
TTITLE2=Marvin Rainwater - Albino (Pink Eyed) Stallion
TTITLE3=Marvin Rainwater - Sticks And Stones
TTITLE4=Marvin Rainwater - Tea Bag Romeo
TTITLE5=Marvin Rainwater - Tennessee Houn' Dog Yodel
TTITLE6=Marvin Rainwater - Dem Low Down Blues
TTITLE7=Marvin Rainwater - Where Do We Go From Here
TTITLE8=Marvin Rainwater - Hot And Cold
TTITLE9=Marvin Rainwater - Mr  Blues
TTITLE10=Marvin Rainwater - Get Off The Stool
TTITLE11=Marvin Rainwater - What Am I Supposed To Do
TTITLE12=Marvin Rainwater - (Sometimes) I Feel Like Leaving Town
TTITLE13=Marvin Rainwater - Why Did You Have To Go And Leave Me
TTITLE14=Marvin Rainwater - Gonna Find Me A Bluebird
TTITLE15=Marvin Rainwater - 'cause I'm A Dreamer
TTITLE16=Marvin Rainwater - So You Think You've Got Troubles
TTITLE17=Marvin Rainwater - Look For Me (I'll Be Waiting For You)
TTITLE18=Marvin Rainwater - Wayward Angel
TTITLE19=Marvin Rainwater - My Brand Of Blues
TTITLE20=Marvin Rainwater - My Love Is Real
TTITLE21=Marvin Rainwater - Lucky Star
TTITLE22=Marvin Rainwater and Connie Francis - The Majesty Of Love
TTITLE23=Marvin Rainwater and Connie Francis - You, My Darling You
TTITLE24=Marvin Rainwater - Whole Lotta Woman (Undubbed Version)
TTITLE25=Marvin Rainwater - Whold Lotta Woman
TTITLE26=Marvin Rainwater - That's The Way I Feel
TTITLE27=Marvin Rainwater - Baby  Don't Go
TTITLE28=Marvin Rainwater and Patty Rainwater - Two Fools In Love
TTITLE29=Marvin Rainwater and Patty Rainwater - Because I'm A Dreamer
TTITLE30=Marvin Rainwater - Down In The Cellar
EXTD=
EXTT0=
EXTT1=
EXTT2=
EXTT3=
EXTT4=
EXTT5=
EXTT6=
EXTT7=
EXTT8=
EXTT9=
EXTT10=
EXTT11=
EXTT12=
EXTT13=
EXTT14=
EXTT15=
EXTT16=
EXTT17=
EXTT18=
EXTT19=
EXTT20=
EXTT21=
EXTT22=
EXTT23=
EXTT24=
EXTT25=
EXTT26=
EXTT27=
EXTT28=
EXTT29=
EXTT30=
PLAYORDER=
